<mxfile host="app.diagrams.net" modified="2020-09-08T05:20:50.654Z" agent="5.0 (Windows NT 10.0; Win64; x64) AppleWebKit/537.36 (KHTML, like Gecko) Chrome/85.0.4183.83 Safari/537.36 Edg/85.0.564.44" etag="HbWWvXpiebNBT1Ik1ET5" version="13.6.8" type="github">
  <diagram id="n1DSh3T9E_Pk7iYmtj9A" name="Page-1">
    <mxGraphModel dx="1422" dy="762" grid="1" gridSize="10" guides="1" tooltips="1" connect="1" arrows="1" fold="1" page="1" pageScale="1" pageWidth="827" pageHeight="1169" math="0" shadow="0">
      <root>
        <mxCell id="0" />
        <mxCell id="1" parent="0" />
        <mxCell id="rCMM3NfX4LUDCF9KQQ6A-44" value="" style="rounded=0;whiteSpace=wrap;html=1;" vertex="1" parent="1">
          <mxGeometry x="770" y="220" width="210" height="390" as="geometry" />
        </mxCell>
        <mxCell id="rCMM3NfX4LUDCF9KQQ6A-3" value="" style="rounded=1;whiteSpace=wrap;html=1;" vertex="1" parent="1">
          <mxGeometry x="70" y="110" width="600" height="590" as="geometry" />
        </mxCell>
        <mxCell id="rCMM3NfX4LUDCF9KQQ6A-6" value="" style="rounded=0;whiteSpace=wrap;html=1;" vertex="1" parent="1">
          <mxGeometry x="232" y="360" width="376" height="298" as="geometry" />
        </mxCell>
        <mxCell id="rCMM3NfX4LUDCF9KQQ6A-5" value="" style="rounded=0;whiteSpace=wrap;html=1;" vertex="1" parent="1">
          <mxGeometry x="232" y="160" width="376" height="150" as="geometry" />
        </mxCell>
        <mxCell id="rCMM3NfX4LUDCF9KQQ6A-4" value="" style="rounded=1;whiteSpace=wrap;html=1;" vertex="1" parent="1">
          <mxGeometry x="740" y="100" width="556" height="600" as="geometry" />
        </mxCell>
        <mxCell id="rCMM3NfX4LUDCF9KQQ6A-7" value="页面1&lt;br&gt;页面2&lt;br&gt;......" style="rounded=1;whiteSpace=wrap;html=1;" vertex="1" parent="1">
          <mxGeometry x="458" y="210" width="120" height="60" as="geometry" />
        </mxCell>
        <mxCell id="rCMM3NfX4LUDCF9KQQ6A-72" style="edgeStyle=orthogonalEdgeStyle;rounded=0;orthogonalLoop=1;jettySize=auto;html=1;entryX=0;entryY=0.5;entryDx=0;entryDy=0;" edge="1" parent="1" source="rCMM3NfX4LUDCF9KQQ6A-10" target="rCMM3NfX4LUDCF9KQQ6A-50">
          <mxGeometry relative="1" as="geometry">
            <Array as="points">
              <mxPoint x="690" y="426" />
              <mxPoint x="690" y="297" />
            </Array>
          </mxGeometry>
        </mxCell>
        <mxCell id="rCMM3NfX4LUDCF9KQQ6A-10" value="页面3&lt;br&gt;页面4&lt;br&gt;......" style="rounded=1;whiteSpace=wrap;html=1;" vertex="1" parent="1">
          <mxGeometry x="462" y="396" width="120" height="60" as="geometry" />
        </mxCell>
        <mxCell id="rCMM3NfX4LUDCF9KQQ6A-73" style="edgeStyle=orthogonalEdgeStyle;rounded=0;orthogonalLoop=1;jettySize=auto;html=1;entryX=0;entryY=0.5;entryDx=0;entryDy=0;" edge="1" parent="1" source="rCMM3NfX4LUDCF9KQQ6A-13" target="rCMM3NfX4LUDCF9KQQ6A-52">
          <mxGeometry relative="1" as="geometry" />
        </mxCell>
        <mxCell id="rCMM3NfX4LUDCF9KQQ6A-13" value="页面3&lt;br&gt;页面4&lt;br&gt;......" style="rounded=1;whiteSpace=wrap;html=1;" vertex="1" parent="1">
          <mxGeometry x="462" y="489" width="120" height="60" as="geometry" />
        </mxCell>
        <mxCell id="rCMM3NfX4LUDCF9KQQ6A-14" value="省份2" style="text;html=1;strokeColor=none;fillColor=none;align=center;verticalAlign=middle;whiteSpace=wrap;rounded=0;" vertex="1" parent="1">
          <mxGeometry x="502" y="469" width="40" height="20" as="geometry" />
        </mxCell>
        <mxCell id="rCMM3NfX4LUDCF9KQQ6A-74" style="edgeStyle=orthogonalEdgeStyle;rounded=0;orthogonalLoop=1;jettySize=auto;html=1;entryX=0;entryY=0.5;entryDx=0;entryDy=0;" edge="1" parent="1" source="rCMM3NfX4LUDCF9KQQ6A-15" target="rCMM3NfX4LUDCF9KQQ6A-54">
          <mxGeometry relative="1" as="geometry">
            <Array as="points">
              <mxPoint x="710" y="606" />
              <mxPoint x="710" y="534" />
            </Array>
          </mxGeometry>
        </mxCell>
        <mxCell id="rCMM3NfX4LUDCF9KQQ6A-15" value="页面3&lt;br&gt;页面4&lt;br&gt;......" style="rounded=1;whiteSpace=wrap;html=1;" vertex="1" parent="1">
          <mxGeometry x="462" y="576" width="120" height="60" as="geometry" />
        </mxCell>
        <mxCell id="rCMM3NfX4LUDCF9KQQ6A-16" value="集中化" style="text;html=1;strokeColor=none;fillColor=none;align=center;verticalAlign=middle;whiteSpace=wrap;rounded=0;" vertex="1" parent="1">
          <mxGeometry x="502" y="556" width="40" height="20" as="geometry" />
        </mxCell>
        <mxCell id="rCMM3NfX4LUDCF9KQQ6A-18" value="规范需求" style="text;html=1;strokeColor=none;fillColor=none;align=center;verticalAlign=middle;whiteSpace=wrap;rounded=0;" vertex="1" parent="1">
          <mxGeometry x="218" y="170" width="100" height="20" as="geometry" />
        </mxCell>
        <mxCell id="rCMM3NfX4LUDCF9KQQ6A-19" value="金库Web" style="text;html=1;strokeColor=none;fillColor=none;align=center;verticalAlign=middle;whiteSpace=wrap;rounded=0;" vertex="1" parent="1">
          <mxGeometry x="301" y="120" width="86" height="20" as="geometry" />
        </mxCell>
        <mxCell id="rCMM3NfX4LUDCF9KQQ6A-20" value="Controller1&lt;br&gt;Controller2&lt;br&gt;......" style="rounded=1;whiteSpace=wrap;html=1;" vertex="1" parent="1">
          <mxGeometry x="268" y="210" width="120" height="60" as="geometry" />
        </mxCell>
        <mxCell id="rCMM3NfX4LUDCF9KQQ6A-69" style="edgeStyle=orthogonalEdgeStyle;rounded=0;orthogonalLoop=1;jettySize=auto;html=1;entryX=0;entryY=0.5;entryDx=0;entryDy=0;" edge="1" parent="1" source="rCMM3NfX4LUDCF9KQQ6A-21" target="rCMM3NfX4LUDCF9KQQ6A-10">
          <mxGeometry relative="1" as="geometry" />
        </mxCell>
        <mxCell id="rCMM3NfX4LUDCF9KQQ6A-21" value="Controller3&lt;br&gt;Controller4&lt;br&gt;......" style="rounded=1;whiteSpace=wrap;html=1;" vertex="1" parent="1">
          <mxGeometry x="278" y="396" width="120" height="60" as="geometry" />
        </mxCell>
        <mxCell id="rCMM3NfX4LUDCF9KQQ6A-22" value="ConditionalOn省份1" style="text;html=1;strokeColor=none;fillColor=none;align=center;verticalAlign=middle;whiteSpace=wrap;rounded=0;" vertex="1" parent="1">
          <mxGeometry x="261" y="370" width="150" height="20" as="geometry" />
        </mxCell>
        <mxCell id="rCMM3NfX4LUDCF9KQQ6A-70" style="edgeStyle=orthogonalEdgeStyle;rounded=0;orthogonalLoop=1;jettySize=auto;html=1;" edge="1" parent="1" source="rCMM3NfX4LUDCF9KQQ6A-23" target="rCMM3NfX4LUDCF9KQQ6A-13">
          <mxGeometry relative="1" as="geometry" />
        </mxCell>
        <mxCell id="rCMM3NfX4LUDCF9KQQ6A-23" value="Controller3&lt;br&gt;Controller4&lt;br&gt;......" style="rounded=1;whiteSpace=wrap;html=1;" vertex="1" parent="1">
          <mxGeometry x="278" y="489" width="120" height="60" as="geometry" />
        </mxCell>
        <mxCell id="rCMM3NfX4LUDCF9KQQ6A-24" value="ConditionalOn省份2" style="text;html=1;strokeColor=none;fillColor=none;align=center;verticalAlign=middle;whiteSpace=wrap;rounded=0;" vertex="1" parent="1">
          <mxGeometry x="278" y="469" width="120" height="20" as="geometry" />
        </mxCell>
        <mxCell id="rCMM3NfX4LUDCF9KQQ6A-71" style="edgeStyle=orthogonalEdgeStyle;rounded=0;orthogonalLoop=1;jettySize=auto;html=1;" edge="1" parent="1" source="rCMM3NfX4LUDCF9KQQ6A-25" target="rCMM3NfX4LUDCF9KQQ6A-15">
          <mxGeometry relative="1" as="geometry" />
        </mxCell>
        <mxCell id="rCMM3NfX4LUDCF9KQQ6A-25" value="Controller3&lt;br&gt;Controller4&lt;br&gt;......" style="rounded=1;whiteSpace=wrap;html=1;" vertex="1" parent="1">
          <mxGeometry x="278" y="576" width="120" height="60" as="geometry" />
        </mxCell>
        <mxCell id="rCMM3NfX4LUDCF9KQQ6A-26" value="ConditionalOn集中化" style="text;html=1;strokeColor=none;fillColor=none;align=center;verticalAlign=middle;whiteSpace=wrap;rounded=0;" vertex="1" parent="1">
          <mxGeometry x="278" y="556" width="120" height="20" as="geometry" />
        </mxCell>
        <mxCell id="rCMM3NfX4LUDCF9KQQ6A-28" value="金库后台" style="text;html=1;strokeColor=none;fillColor=none;align=center;verticalAlign=middle;whiteSpace=wrap;rounded=0;" vertex="1" parent="1">
          <mxGeometry x="982" y="120" width="92" height="20" as="geometry" />
        </mxCell>
        <mxCell id="rCMM3NfX4LUDCF9KQQ6A-42" value="Database" style="shape=datastore;whiteSpace=wrap;html=1;" vertex="1" parent="1">
          <mxGeometry x="1090" y="267" width="60" height="60" as="geometry" />
        </mxCell>
        <mxCell id="rCMM3NfX4LUDCF9KQQ6A-43" value="省份1" style="text;html=1;strokeColor=none;fillColor=none;align=center;verticalAlign=middle;whiteSpace=wrap;rounded=0;" vertex="1" parent="1">
          <mxGeometry x="500" y="370" width="40" height="20" as="geometry" />
        </mxCell>
        <mxCell id="rCMM3NfX4LUDCF9KQQ6A-75" style="edgeStyle=orthogonalEdgeStyle;rounded=0;orthogonalLoop=1;jettySize=auto;html=1;" edge="1" parent="1" source="rCMM3NfX4LUDCF9KQQ6A-50" target="rCMM3NfX4LUDCF9KQQ6A-42">
          <mxGeometry relative="1" as="geometry" />
        </mxCell>
        <mxCell id="rCMM3NfX4LUDCF9KQQ6A-50" value="金库服务" style="rounded=1;whiteSpace=wrap;html=1;" vertex="1" parent="1">
          <mxGeometry x="816" y="267" width="120" height="60" as="geometry" />
        </mxCell>
        <mxCell id="rCMM3NfX4LUDCF9KQQ6A-51" value="ConditionalOn省份1" style="text;html=1;strokeColor=none;fillColor=none;align=center;verticalAlign=middle;whiteSpace=wrap;rounded=0;" vertex="1" parent="1">
          <mxGeometry x="799" y="241" width="150" height="20" as="geometry" />
        </mxCell>
        <mxCell id="rCMM3NfX4LUDCF9KQQ6A-76" style="edgeStyle=orthogonalEdgeStyle;rounded=0;orthogonalLoop=1;jettySize=auto;html=1;" edge="1" parent="1" source="rCMM3NfX4LUDCF9KQQ6A-52" target="rCMM3NfX4LUDCF9KQQ6A-61">
          <mxGeometry relative="1" as="geometry" />
        </mxCell>
        <mxCell id="rCMM3NfX4LUDCF9KQQ6A-52" value="金库服务" style="rounded=1;whiteSpace=wrap;html=1;" vertex="1" parent="1">
          <mxGeometry x="816" y="380" width="120" height="60" as="geometry" />
        </mxCell>
        <mxCell id="rCMM3NfX4LUDCF9KQQ6A-53" value="ConditionalOn省份2" style="text;html=1;strokeColor=none;fillColor=none;align=center;verticalAlign=middle;whiteSpace=wrap;rounded=0;" vertex="1" parent="1">
          <mxGeometry x="816" y="360" width="120" height="20" as="geometry" />
        </mxCell>
        <mxCell id="rCMM3NfX4LUDCF9KQQ6A-77" style="edgeStyle=orthogonalEdgeStyle;rounded=0;orthogonalLoop=1;jettySize=auto;html=1;" edge="1" parent="1" source="rCMM3NfX4LUDCF9KQQ6A-54" target="rCMM3NfX4LUDCF9KQQ6A-62">
          <mxGeometry relative="1" as="geometry" />
        </mxCell>
        <mxCell id="rCMM3NfX4LUDCF9KQQ6A-54" value="金库服务" style="rounded=1;whiteSpace=wrap;html=1;" vertex="1" parent="1">
          <mxGeometry x="816" y="504" width="120" height="60" as="geometry" />
        </mxCell>
        <mxCell id="rCMM3NfX4LUDCF9KQQ6A-55" value="ConditionalOn集中化" style="text;html=1;strokeColor=none;fillColor=none;align=center;verticalAlign=middle;whiteSpace=wrap;rounded=0;" vertex="1" parent="1">
          <mxGeometry x="816" y="484" width="120" height="20" as="geometry" />
        </mxCell>
        <mxCell id="rCMM3NfX4LUDCF9KQQ6A-61" value="&lt;span&gt;Database&lt;/span&gt;" style="shape=datastore;whiteSpace=wrap;html=1;" vertex="1" parent="1">
          <mxGeometry x="1090" y="380" width="60" height="60" as="geometry" />
        </mxCell>
        <mxCell id="rCMM3NfX4LUDCF9KQQ6A-62" value="&lt;span&gt;Database&lt;/span&gt;" style="shape=datastore;whiteSpace=wrap;html=1;" vertex="1" parent="1">
          <mxGeometry x="1090" y="504" width="60" height="60" as="geometry" />
        </mxCell>
        <mxCell id="rCMM3NfX4LUDCF9KQQ6A-67" style="edgeStyle=orthogonalEdgeStyle;rounded=0;orthogonalLoop=1;jettySize=auto;html=1;entryX=0;entryY=0.5;entryDx=0;entryDy=0;" edge="1" parent="1" source="rCMM3NfX4LUDCF9KQQ6A-63" target="rCMM3NfX4LUDCF9KQQ6A-5">
          <mxGeometry relative="1" as="geometry" />
        </mxCell>
        <mxCell id="rCMM3NfX4LUDCF9KQQ6A-68" style="edgeStyle=orthogonalEdgeStyle;rounded=0;orthogonalLoop=1;jettySize=auto;html=1;" edge="1" parent="1" source="rCMM3NfX4LUDCF9KQQ6A-63" target="rCMM3NfX4LUDCF9KQQ6A-6">
          <mxGeometry relative="1" as="geometry" />
        </mxCell>
        <mxCell id="rCMM3NfX4LUDCF9KQQ6A-63" value="Browser" style="shape=mxgraph.cisco.computers_and_peripherals.web_browser;html=1;pointerEvents=1;dashed=0;fillColor=#036897;strokeColor=#ffffff;strokeWidth=2;verticalLabelPosition=bottom;verticalAlign=top;align=center;outlineConnect=0;" vertex="1" parent="1">
          <mxGeometry x="100" y="338" width="62" height="64" as="geometry" />
        </mxCell>
      </root>
    </mxGraphModel>
  </diagram>
</mxfile>
